<?xml version="1.0" encoding="utf-8"?>
<!-- Generator: Adobe Illustrator 23.0.2, SVG Export Plug-In . SVG Version: 6.00 Build 0)  -->
<svg version="1.1" id="Layer_1" xmlns="http://www.w3.org/2000/svg" xmlns:xlink="http://www.w3.org/1999/xlink" x="0px" y="0px"
	 viewBox="0 0 34.4 57.9" style="enable-background:new 0 0 34.4 57.9;" xml:space="preserve">
<style type="text/css">
	.st0{fill:#4C4C4C;}
</style>
<g id="Layer_x0020_1_12_">
	<g id="_2495115823968_1_">
		<g>
			<path class="st0" d="M24.8,57.9H7.6L0,22.7h32.8L24.8,57.9z M9.2,55.9h13.9l7.1-31.2H2.5L9.2,55.9z"/>
		</g>
		<g>
			<path class="st0" d="M20.4,53l-1.9-0.5l9.1-33.2l1.9,0.5L20.4,53z M31,13.4L29,12.9L32.5,0l1.9,0.5L31,13.4z"/>
		</g>
		<g>
			<path class="st0" d="M29.3,20.9c-2.4,0-4.4-2-4.4-4.4s2-4.4,4.4-4.4s4.4,2,4.4,4.4S31.7,20.9,29.3,20.9z M29.3,14.1
				c-1.3,0-2.4,1.1-2.4,2.4s1.1,2.4,2.4,2.4s2.4-1.1,2.4-2.4S30.6,14.1,29.3,14.1z"/>
		</g>
		<g>
			<rect x="3.9" y="34.4" class="st0" width="25" height="2"/>
		</g>
		<g>
			<rect x="9.9" y="41.2" class="st0" width="12.9" height="2"/>
		</g>
		<g>
			<rect x="12.2" y="44.6" class="st0" width="6.4" height="2"/>
		</g>
	</g>
</g>
</svg>
