<?xml version="1.0" encoding="utf-8"?>
<!-- Generator: Adobe Illustrator 23.0.2, SVG Export Plug-In . SVG Version: 6.00 Build 0)  -->
<svg version="1.1" id="Layer_1" xmlns="http://www.w3.org/2000/svg" xmlns:xlink="http://www.w3.org/1999/xlink" x="0px" y="0px"
	 viewBox="0 0 57.2 58.3" style="enable-background:new 0 0 57.2 58.3;" xml:space="preserve">
<style type="text/css">
	.st0{fill:none;stroke:#4C4C4C;stroke-width:2;stroke-linecap:square;}
</style>
<g id="Layer_x0020_1">
	<path class="st0" d="M1.4,1.4H9 M9,5.9V9H1.4V5.9"/>
	<path class="st0" d="M17,1.4h7.6 M24.6,5.9V9H17V5.9"/>
	<path class="st0" d="M32.6,1.4h7.6 M40.3,5.9V9h-7.6V5.9"/>
	<path class="st0" d="M48.2,1.4h7.6 M55.8,5.9V9h-7.6V5.9"/>
	<path class="st0" d="M1.4,33.3H9 M9,37.9V41H1.4v-3.1"/>
	<path class="st0" d="M17,33.3h7.6 M24.6,37.9V41H17v-3.1"/>
	<path class="st0" d="M32.6,33.3h7.6 M40.3,37.9V41h-7.6v-3.1"/>
	<path class="st0" d="M48.2,33.3h7.6 M55.8,37.9V41h-7.6v-3.1"/>
	<rect x="1.4" y="17.4" class="st0" width="54.4" height="7.6"/>
	<rect x="1.4" y="49.3" class="st0" width="54.4" height="7.6"/>
</g>
</svg>
