<?xml version="1.0" encoding="utf-8"?>
<!-- Generator: Adobe Illustrator 23.0.2, SVG Export Plug-In . SVG Version: 6.00 Build 0)  -->
<svg version="1.1" id="Layer_1" xmlns="http://www.w3.org/2000/svg" xmlns:xlink="http://www.w3.org/1999/xlink" x="0px" y="0px"
	 viewBox="0 0 68.6 58.7" style="enable-background:new 0 0 68.6 58.7;" xml:space="preserve">
<style type="text/css">
	.st0{fill:#4C4C4C;}
	.st1{fill:#2B2A29;}
	.st2{fill-rule:evenodd;clip-rule:evenodd;fill:#2B2A29;}
</style>
<g id="Layer_x0020_1_1_">
	<g id="_1711606308784">
		<g>
			<path class="st1" d="M68.6,58.7H0V0h68.6V58.7z M2,56.7h64.6V2H2V56.7z"/>
		</g>
		<g>
			<g>
				<path class="st1" d="M41.4,47.8h-2V32c0-2.6-2.2-5.4-5.4-5.4c-2.9,0-5.4,2.5-5.4,5.4v15.8h-2V32c0-2.9-2.5-5.4-5.4-5.4
					c-2.7,0-5.2,2.6-5.2,5.4v15.8h-2V32c0-4,3.4-7.4,7.2-7.4c2.7,0,5.1,1.5,6.4,3.8c1.3-2.2,3.7-3.8,6.4-3.8c4.1,0,7.4,3.3,7.4,7.4
					V47.8z"/>
			</g>
			<g>
				<path class="st1" d="M54,23.7h-9.2v-1c0-1.8,0.5-3.4,2.8-5.5l2.9-2.3c1-0.8,1.4-1.7,1.1-2.6c-0.2-0.7-0.8-1.2-1.5-1.3L50,11
					c-0.6-0.2-1.4-0.1-2,0.4c-0.3,0.2-0.9,0.8-0.9,1.8h-2c0-1.3,0.6-2.6,1.7-3.4c1.1-0.8,2.4-1,3.7-0.7c1.5,0.2,2.7,1.2,3.1,2.7
					c0.5,1.7-0.2,3.4-1.8,4.7l-2.9,2.3c-1.4,1.3-1.9,2.2-2,3H54V23.7z"/>
			</g>
		</g>
	</g>
</g>
</svg>
