<?xml version="1.0" encoding="utf-8"?>
<!-- Generator: Adobe Illustrator 23.0.2, SVG Export Plug-In . SVG Version: 6.00 Build 0)  -->
<svg version="1.1" id="Layer_1" xmlns="http://www.w3.org/2000/svg" xmlns:xlink="http://www.w3.org/1999/xlink" x="0px" y="0px"
	 viewBox="0 0 57.6 58.3" style="enable-background:new 0 0 57.6 58.3;" xml:space="preserve">
<style type="text/css">
	.st0{fill:none;stroke:#4C4C4C;stroke-width:2;stroke-linecap:square;}
</style>
<g id="Layer_x0020_1">
	<rect x="1.4" y="49.3" class="st0" width="54.3" height="7.6"/>
	<path class="st0" d="M1.8,1.4h7.6 M9.4,6v3.2H1.8V6"/>
	<path class="st0" d="M1.8,17.4h7.6 M9.4,22v3H1.8v-3"/>
	<path class="st0" d="M1.8,33.3h7.6 M9.4,37.9V41H1.8v-3.2"/>
	<path class="st0" d="M17.4,1.4h7.6 M24.9,6v3.2h-7.6V6"/>
	<path class="st0" d="M17.4,17.4h7.6 M24.9,22v3h-7.6v-3"/>
	<path class="st0" d="M17.4,33.3h7.6 M24.9,37.9V41h-7.6v-3.2"/>
	<path class="st0" d="M33,1.4h7.6 M40.5,6v3.2H33V6"/>
	<path class="st0" d="M33,17.4h7.6 M40.5,22v3H33v-3"/>
	<path class="st0" d="M33,33.3h7.6 M40.5,37.9V41H33v-3.2"/>
	<path class="st0" d="M48.5,1.4h7.6 M56.1,6v3.2h-7.6V6"/>
	<path class="st0" d="M48.5,17.4h7.6 M56.1,22v3h-7.6v-3"/>
	<path class="st0" d="M48.5,33.3h7.6 M56.1,37.9V41h-7.6v-3.2"/>
</g>
</svg>
