<?xml version="1.0" encoding="utf-8"?>
<!-- Generator: Adobe Illustrator 23.0.2, SVG Export Plug-In . SVG Version: 6.00 Build 0)  -->
<svg version="1.1" id="Layer_1" xmlns="http://www.w3.org/2000/svg" xmlns:xlink="http://www.w3.org/1999/xlink" x="0px" y="0px"
	 viewBox="0 0 53.2 58.8" style="enable-background:new 0 0 53.2 58.8;" xml:space="preserve">
<style type="text/css">
	.st0{fill:#4C4C4C;}
</style>
<g id="Layer_x0020_1_9_">
	<g>
		<rect x="0.6" y="41" transform="matrix(0.9837 -0.1797 0.1797 0.9837 -7.1115 5.4633)" class="st0" width="52" height="2"/>
	</g>
	<g>
		<path class="st0" d="M0,58.8V34.5L19.7,9.8h0.5c0.1,0,2,0,4.6,0.7l1.7,0.4l-1.2,1.2c-0.3,0.3-0.4,0.5-0.4,1.7c0,3.7,3.3,7,7,7
			c3.1,0,6-2,7.1-4.9l0.4-0.9l0.9,0.3c5.3,2,9.7,5.3,12.8,9.6l0.2,0.3v24.6L0,58.8z M2,35.2v21.3l49.2-8.3V26
			c-2.7-3.6-6.4-6.5-10.8-8.3c-1.6,3.2-5,5.2-8.5,5.2c-4.8,0-9-4.2-9-9c0-0.7,0-1.2,0.1-1.8c-1-0.2-1.8-0.3-2.3-0.3L2,35.2z"/>
	</g>
	<g>
		<path class="st0" d="M31.8,22.9c-5,0-9-4.1-9-9s4.1-9,9-9c5,0,9,4.1,9,9S36.8,22.9,31.8,22.9z M31.8,6.8c-3.9,0-7,3.2-7,7
			s3.2,7,7,7c3.9,0,7-3.2,7-7S35.7,6.8,31.8,6.8z"/>
	</g>
	<g>
		<rect x="0.6" y="29.3" transform="matrix(0.9841 -0.1777 0.1777 0.9841 -4.9521 5.2062)" class="st0" width="52" height="2"/>
	</g>
	<g>
		<path class="st0" d="M33.4,9.8l-1.9-0.5c1.1-4,3-7.9,8.8-9.3l0.5,1.9C36.2,3.1,34.6,5.8,33.4,9.8z"/>
	</g>
</g>
</svg>
