<?xml version="1.0" encoding="utf-8"?>
<!-- Generator: Adobe Illustrator 23.0.2, SVG Export Plug-In . SVG Version: 6.00 Build 0)  -->
<svg version="1.1" id="Layer_1" xmlns="http://www.w3.org/2000/svg" xmlns:xlink="http://www.w3.org/1999/xlink" x="0px" y="0px"
	 viewBox="0 0 71.5 58.5" style="enable-background:new 0 0 71.5 58.5;" xml:space="preserve">
<style type="text/css">
	.st0{fill:#4C4C4C;}
</style>
<g id="Layer_x0020_1_10_">
	<g id="_2495115814912_1_">
		<g>
			<path class="st0" d="M41.6,58.5H19.2l-0.3-0.3c-13.7-12.3-19.8-38-18.8-46l0.1-0.9H61l0.1,0.9c0.5,7.6-4.7,33.3-19.2,46
				L41.6,58.5z M19.9,56.5h20.9c12.6-11.3,18.3-34.4,18.2-43.1H2C1.6,21.7,7.6,45.1,19.9,56.5z"/>
		</g>
		<g>
			<path class="st0" d="M52.6,42.3v-2c0.5-0.1,6.6-1.4,11.4-4.4c3.8-2.7,5.8-6.8,5.4-10.9c-0.3-2.5-1.5-4.6-3.2-5.4
				c-1.7-0.8-3.8-0.3-6.1,1.3l-1.2-1.6c2.8-2.1,5.7-2.6,8.1-1.5c2.4,1.1,4.1,3.7,4.4,7c0.5,4.8-1.9,9.6-6.3,12.7
				C60,40.8,53.3,42.3,52.6,42.3z"/>
		</g>
		<g>
			<rect x="3.4" y="26.5" class="st0" width="54.8" height="2"/>
		</g>
		<g>
			<rect x="14" y="40.3" class="st0" width="16.5" height="2"/>
		</g>
		<g>
			<g>
				<path class="st0" d="M35.8,24.6c-1.6-1.6-2.6-4.2-2.6-6.7c0-2.4,0.9-4.5,2.6-6.2c1.3-1.4,2-3.4,2-5.3h2c0,2.5-1,5-2.6,6.7
					l-0.7-0.7l0.7,0.7c-1.4,1.4-2,3-2,4.8c0,2.1,0.8,4,2,5.3L35.8,24.6z"/>
			</g>
			<g>
				<path class="st0" d="M29.8,24.6c-1.6-1.6-2.6-4.2-2.6-6.7c0-2.4,0.9-4.5,2.6-6.2l0,0c1.2-1.2,2-3.3,2-5.3c0-1.9-0.7-3.6-2-4.8
					l1.4-1.5c1.7,1.6,2.6,3.8,2.6,6.3c0,2.5-1,5.1-2.6,6.7l-0.7-0.7l0.7,0.7c-1.4,1.4-2,3-2,4.8c0,2.1,0.8,4,2,5.3L29.8,24.6z"/>
			</g>
			<g>
				<path class="st0" d="M22.8,17.9h-2c0-2.4,0.9-4.5,2.6-6.2l0.7,0.7l-0.6-0.8c1.4-1.1,2.3-3,2.3-5.2c0-2-0.8-3.6-2.3-4.7L24.7,0
					c2.1,1.5,3.1,3.7,3.1,6.3c0,2.8-1.1,5.3-3.1,6.8C23.4,14.5,22.8,16.1,22.8,17.9z"/>
			</g>
		</g>
	</g>
</g>
</svg>
