<?xml version="1.0" encoding="utf-8"?>
<!-- Generator: Adobe Illustrator 23.0.2, SVG Export Plug-In . SVG Version: 6.00 Build 0)  -->
<svg version="1.1" id="Layer_1" xmlns="http://www.w3.org/2000/svg" xmlns:xlink="http://www.w3.org/1999/xlink" x="0px" y="0px"
	 viewBox="0 0 76.4 58.4" style="enable-background:new 0 0 76.4 58.4;" xml:space="preserve">
<style type="text/css">
	.st0{fill:#4C4C4C;}
</style>
<g id="Layer_x0020_1_14_">
	<g>
		<path class="st0" d="M68.3,58.4H8v-1C8,41,21.5,27.6,38.2,27.6c16.6,0,30.2,13.4,30.2,29.8V58.4z M10,56.4h56.3
			c-0.5-14.9-13-26.8-28.1-26.8C23,29.6,10.6,41.5,10,56.4z"/>
	</g>
	<g>
		<rect y="56.4" class="st0" width="76.4" height="2"/>
	</g>
	<g>
		<path class="st0" d="M43.7,24.5c-1.9-1.4-2.9-3.7-2.9-6.5c0-2.3,1-4.7,2.8-6.5l1.4,1.4c-1.4,1.4-2.2,3.2-2.2,5
			c0,2.2,0.7,3.9,2.1,5L43.7,24.5z M45,12.9l-1.4-1.4c1.4-1.4,2.2-3.2,2.2-5h2C47.8,8.8,46.8,11.2,45,12.9z"/>
	</g>
	<g>
		<path class="st0" d="M37.6,24.5c-1.9-1.4-2.9-3.8-2.9-6.5c0-2.3,1-4.6,2.7-6.4c1.5-1.9,2.2-3.7,2.2-5.1c0-2.6-1.5-4.4-2.2-5
			L38.9,0c1.8,1.8,2.8,4.1,2.8,6.5c0,1.9-0.9,4-2.7,6.4l-0.8-0.6l0.7,0.7c-1.4,1.4-2.2,3.2-2.2,5c0,2.2,0.7,3.9,2.1,5L37.6,24.5z"/>
	</g>
	<g>
		<path class="st0" d="M30.5,18h-2c0-2.3,1-4.6,2.7-6.4c1.5-1.9,2.2-3.7,2.2-5.1c0-2.6-1.5-4.4-2.2-5L32.7,0
			c1.8,1.8,2.8,4.1,2.8,6.5c0,1.9-0.9,4-2.7,6.4L32,12.2l0.7,0.7C31.3,14.3,30.5,16.2,30.5,18z"/>
	</g>
</g>
</svg>
