<?xml version="1.0" encoding="utf-8"?>
<!-- Generator: Adobe Illustrator 23.0.2, SVG Export Plug-In . SVG Version: 6.00 Build 0)  -->
<svg version="1.1" id="Layer_1" xmlns="http://www.w3.org/2000/svg" xmlns:xlink="http://www.w3.org/1999/xlink" x="0px" y="0px"
	 viewBox="0 0 116.1 60.7" style="enable-background:new 0 0 116.1 60.7;" xml:space="preserve">
<style type="text/css">
	.st0{fill:#4C4C4C;}
	.st1{fill:#2B2A29;}
	.st2{fill-rule:evenodd;clip-rule:evenodd;fill:#2B2A29;}
</style>
<g id="Layer_x0020_1_9_">
	<g id="_2471898163936_1_">
		<g>
			<path class="st1" d="M65.8,7.7h-4c0-2.1-1.6-3.7-3.7-3.7c-2.1,0-3.7,1.7-3.7,3.7h-4c0-4.3,3.5-7.7,7.7-7.7
				C62.4,0,65.8,3.4,65.8,7.7z"/>
		</g>
		<g>
			<path class="st1" d="M104.4,60.7H11.7v-2c0-25.6,20.8-46.3,46.4-46.2c12.3,0,23.9,4.8,32.6,13.5c8.8,8.7,13.6,20.4,13.6,32.7
				V60.7z M15.8,56.7h84.6C99.9,46.1,95.5,36.3,88,28.8c-8-8-18.7-12.3-30-12.3C35.3,16.5,16.8,34.3,15.8,56.7z"/>
		</g>
		<g>
			<rect x="0" y="56.7" class="st1" width="116.1" height="4"/>
		</g>
	</g>
</g>
</svg>
